<svg xmlns="http://www.w3.org/2000/svg" viewBox="0 0 64 64" role="img" aria-label="Adira">
  <!--
    PLACEHOLDER MARK — a lotus with a seated figure, redrawn from the mark in the
    supplied architecture posters. This is not the official logo; replace it when the
    source asset arrives. See docs/BRANDING.md.

    Drawn with `currentColor` so it inherits the surrounding text colour and works in
    both themes without a second file.
  -->
  <g fill="currentColor">
    <g opacity="0.32">
      <ellipse cx="32" cy="41" rx="4.6" ry="12" transform="rotate(-72 32 51)" />
      <ellipse cx="32" cy="41" rx="4.6" ry="12" transform="rotate(72 32 51)" />
    </g>
    <g opacity="0.55">
      <ellipse cx="32" cy="41" rx="4.8" ry="12.5" transform="rotate(-44 32 51)" />
      <ellipse cx="32" cy="41" rx="4.8" ry="12.5" transform="rotate(44 32 51)" />
    </g>
    <g opacity="0.78">
      <ellipse cx="32" cy="40" rx="5" ry="13" transform="rotate(-20 32 51)" />
      <ellipse cx="32" cy="40" rx="5" ry="13" transform="rotate(20 32 51)" />
    </g>
  </g>

  <!-- Seated figure, knocked out of the petals so it reads at favicon size. -->
  <g fill="currentColor">
    <circle cx="32" cy="23" r="5.4" />
    <path d="M32 30.2c-4.3 0-7.9 2.9-9.1 6.8-3.6.7-6.5 3-7.9 5.9a1.4 1.4 0 0 0 1.3 2h31.4a1.4 1.4 0 0 0 1.3-2c-1.4-2.9-4.3-5.2-7.9-5.9-1.2-3.9-4.8-6.8-9.1-6.8z" />
    <path d="M20.6 46.4h22.8a1.5 1.5 0 0 1 0 3H20.6a1.5 1.5 0 0 1 0-3z" opacity="0.85" />
  </g>
</svg>
